<svg width="458" height="223" viewBox="0 0 458 223" fill="none" xmlns="http://www.w3.org/2000/svg">
<rect x="2.5" y="2.5" width="453" height="218" rx="49.5" stroke="white" stroke-width="5"/>
<path d="M367.745 32.1788C367.073 33.3703 366.737 46.6472 367.073 61.4561C368.08 88.5206 368.08 88.6908 375.805 89.2015C387.895 90.0526 403.007 86.1376 408.381 80.8608C411.739 77.6267 413.418 70.6478 413.418 59.7539C413.418 42.3918 409.052 35.0725 396.962 31.6681C387.895 29.2851 369.76 29.4553 367.745 32.1788Z" fill="white"/>
<path d="M115.197 38.8173C112.846 40.0088 111.167 41.8812 111.167 43.0727C111.167 44.7748 102.771 45.2855 77.5835 45.2855H44V59.7539V74.2224H77.2476C109.824 74.2224 110.495 74.2224 112.51 78.4778C114.525 82.563 115.533 82.7332 143.071 82.7332H171.617V59.7539V36.7746H145.422C129.638 36.7746 117.548 37.6257 115.197 38.8173Z" fill="white"/>
<path d="M250.538 94.1377C254.904 103.67 264.979 110.989 280.428 116.266C289.495 119.33 300.242 121.883 304.272 121.883C311.996 121.883 312.332 121.372 313.34 106.393C314.011 97.8825 313.675 90.5632 313.004 90.2228C312.332 89.8823 297.219 89.5419 279.756 89.5419H248.188L250.538 94.1377Z" fill="white"/>
<path d="M288.152 175.842C286.809 176.353 285.801 180.608 285.801 185.204V193.374L343.901 193.034L401.664 192.523L402.672 187.587C403.343 185.034 403.007 180.948 402 178.736L399.985 174.65H344.908C315.019 174.65 289.159 175.161 288.152 175.842Z" fill="white"/>
<path d="M201.474 22.2H237.634V30.456H211.778V39.672H224.194C229.613 39.672 233.73 40.8027 236.546 43.064C239.405 45.3253 240.834 48.5893 240.834 52.856C240.834 57.336 239.256 60.8133 236.098 63.288C232.941 65.7627 228.482 67 222.722 67H201.474V22.2ZM222.146 59.32C224.792 59.32 226.818 58.808 228.226 57.784C229.634 56.7173 230.338 55.1813 230.338 53.176C230.338 49.2507 227.608 47.288 222.146 47.288H211.778V59.32H222.146ZM288.468 22.2V52.984C288.468 59.7253 286.591 64.888 282.836 68.472C279.082 72.0987 273.898 73.912 267.284 73.912C263.487 73.912 260.01 73.3787 256.852 72.312C253.695 71.288 251.007 69.816 248.788 67.896L252.82 60.216C256.874 63.5013 261.61 65.144 267.028 65.144C270.783 65.144 273.556 64.2053 275.348 62.328C277.183 60.408 278.1 57.464 278.1 53.496V50.744C275.114 54.4133 270.89 56.248 265.428 56.248C259.754 56.248 255.38 54.648 252.308 51.448C249.279 48.2053 247.764 43.5547 247.764 37.496V22.2H258.132V36.856C258.132 40.3547 258.964 43 260.628 44.792C262.292 46.584 264.639 47.48 267.668 47.48C270.868 47.48 273.407 46.5413 275.284 44.664C277.162 42.7867 278.1 39.9493 278.1 36.152V22.2H288.468ZM346.596 58.552V76.28H336.996V67H304.228V76.28H294.628L294.692 58.552H300.068V41.784C300.068 37.4747 300.922 33.8053 302.628 30.776C304.335 27.704 306.724 25.3787 309.796 23.8C312.911 22.2213 316.516 21.432 320.612 21.432C324.708 21.432 328.292 22.2213 331.364 23.8C334.479 25.3787 336.89 27.704 338.596 30.776C340.303 33.8053 341.156 37.4747 341.156 41.784V58.552H346.596ZM330.724 58.552V40.888C330.724 37.3893 329.828 34.744 328.036 32.952C326.287 31.16 323.812 30.264 320.612 30.264C317.455 30.264 314.959 31.16 313.124 32.952C311.332 34.744 310.436 37.3893 310.436 40.888V58.552H330.724Z" fill="white"/>
<path d="M172.789 125.526C178.677 125.526 182.965 126.806 185.653 129.366C188.384 131.883 189.749 135.36 189.749 139.798C189.749 141.803 189.451 143.723 188.853 145.558C188.256 147.35 187.253 148.971 185.845 150.422C184.48 151.83 182.667 152.939 180.405 153.75C178.144 154.56 175.349 154.966 172.021 154.966H167.861V171.222H158.197V125.526H172.789ZM172.277 133.462H167.861V147.03H171.061C172.896 147.03 174.475 146.795 175.797 146.326C177.12 145.856 178.144 145.11 178.869 144.086C179.595 143.062 179.957 141.739 179.957 140.118C179.957 137.856 179.339 136.192 178.101 135.126C176.864 134.016 174.923 133.462 172.277 133.462ZM224.689 171.222H198.385V125.526H224.689V133.462H208.049V143.51H223.537V151.446H208.049V163.222H224.689V171.222ZM253.589 132.95C251.755 132.95 250.112 133.312 248.661 134.038C247.253 134.763 246.059 135.808 245.077 137.174C244.096 138.496 243.349 140.118 242.837 142.038C242.368 143.958 242.133 146.112 242.133 148.502C242.133 151.744 242.517 154.518 243.285 156.822C244.096 159.083 245.355 160.811 247.061 162.006C248.768 163.2 250.944 163.798 253.589 163.798C255.467 163.798 257.323 163.584 259.157 163.158C261.035 162.731 263.061 162.134 265.237 161.366V169.494C263.232 170.304 261.248 170.902 259.285 171.286C257.323 171.67 255.125 171.862 252.693 171.862C248 171.862 244.117 170.902 241.045 168.982C238.016 167.019 235.776 164.288 234.325 160.79C232.875 157.248 232.149 153.131 232.149 148.438C232.149 144.982 232.619 141.824 233.557 138.966C234.496 136.064 235.861 133.568 237.653 131.478C239.488 129.387 241.728 127.766 244.373 126.614C247.061 125.462 250.133 124.886 253.589 124.886C255.851 124.886 258.112 125.184 260.373 125.782C262.677 126.336 264.875 127.104 266.965 128.086L263.829 135.958C262.123 135.147 260.395 134.443 258.645 133.846C256.939 133.248 255.253 132.95 253.589 132.95ZM297.475 157.846C296.195 160.747 294.83 163.264 293.379 165.398C291.971 167.488 290.158 169.088 287.939 170.198C285.721 171.307 282.819 171.862 279.235 171.862C278.126 171.862 276.91 171.776 275.587 171.606C274.265 171.435 273.049 171.2 271.939 170.902V162.582C272.963 163.008 274.094 163.307 275.331 163.478C276.569 163.648 277.721 163.734 278.787 163.734C280.195 163.734 281.326 163.499 282.179 163.03C283.075 162.56 283.779 161.92 284.291 161.11C284.846 160.256 285.294 159.339 285.635 158.358L269.827 125.526H280.067L288.579 145.302C288.793 145.728 289.049 146.283 289.347 146.966C289.646 147.648 289.945 148.352 290.243 149.078C290.542 149.803 290.777 150.443 290.947 150.998H291.267C291.438 150.486 291.651 149.867 291.907 149.142C292.206 148.374 292.505 147.606 292.803 146.838C293.145 146.027 293.443 145.323 293.699 144.726L301.635 125.526H311.619L297.475 157.846ZM331.977 125.526C337.865 125.526 342.153 126.806 344.841 129.366C347.572 131.883 348.937 135.36 348.937 139.798C348.937 141.803 348.638 143.723 348.041 145.558C347.444 147.35 346.441 148.971 345.033 150.422C343.668 151.83 341.854 152.939 339.593 153.75C337.332 154.56 334.537 154.966 331.209 154.966H327.049V171.222H317.385V125.526H331.977ZM331.465 133.462H327.049V147.03H330.249C332.084 147.03 333.662 146.795 334.985 146.326C336.308 145.856 337.332 145.11 338.057 144.086C338.782 143.062 339.145 141.739 339.145 140.118C339.145 137.856 338.526 136.192 337.289 135.126C336.052 134.016 334.11 133.462 331.465 133.462ZM376.964 132.95C375.13 132.95 373.487 133.312 372.036 134.038C370.628 134.763 369.434 135.808 368.452 137.174C367.471 138.496 366.724 140.118 366.212 142.038C365.743 143.958 365.508 146.112 365.508 148.502C365.508 151.744 365.892 154.518 366.66 156.822C367.471 159.083 368.73 160.811 370.436 162.006C372.143 163.2 374.319 163.798 376.964 163.798C378.842 163.798 380.698 163.584 382.532 163.158C384.41 162.731 386.436 162.134 388.612 161.366V169.494C386.607 170.304 384.623 170.902 382.66 171.286C380.698 171.67 378.5 171.862 376.068 171.862C371.375 171.862 367.492 170.902 364.42 168.982C361.391 167.019 359.151 164.288 357.7 160.79C356.25 157.248 355.524 153.131 355.524 148.438C355.524 144.982 355.994 141.824 356.932 138.966C357.871 136.064 359.236 133.568 361.028 131.478C362.863 129.387 365.103 127.766 367.748 126.614C370.436 125.462 373.508 124.886 376.964 124.886C379.226 124.886 381.487 125.184 383.748 125.782C386.052 126.336 388.25 127.104 390.34 128.086L387.204 135.958C385.498 135.147 383.77 134.443 382.02 133.846C380.314 133.248 378.628 132.95 376.964 132.95Z" fill="white"/>
<path d="M46.5 122L46.5 193" stroke="white" stroke-width="5"/>
<line x1="44" y1="190.5" x2="272" y2="190.5" stroke="white" stroke-width="5"/>
</svg>
