<?xml version="1.0" standalone="no"?>
<!DOCTYPE svg PUBLIC "-//W3C//DTD SVG 20010904//EN"
 "http://www.w3.org/TR/2001/REC-SVG-20010904/DTD/svg10.dtd">
<svg version="1.0" xmlns="http://www.w3.org/2000/svg"
 width="279.000000pt" height="181.000000pt" viewBox="0 0 279.000000 181.000000"
 preserveAspectRatio="xMidYMid meet">

<g transform="translate(0.000000,181.000000) scale(0.100000,-0.100000)"
fill="#000000" stroke="none">
<path d="M295 1789 c63 -15 85 -16 103 -7 37 19 6 28 -93 27 l-90 -1 80 -19z"/>
<path d="M1060 1804 c0 -3 13 -24 28 -47 44 -66 78 -129 92 -170 l12 -38 31
30 c77 71 114 109 141 146 17 21 31 34 33 28 6 -18 -35 -93 -79 -145 -37 -45
-37 -54 0 -49 8 1 5 -6 -7 -18 -26 -26 -71 -38 -81 -21 -4 7 -12 10 -17 7 -6
-4 -1 -39 14 -88 21 -75 22 -84 8 -106 -10 -14 -25 -23 -42 -23 -21 0 -24 3
-15 12 12 12 17 68 6 68 -3 0 -17 -14 -31 -30 -13 -17 -30 -27 -35 -23 -7 3
-8 1 -4 -6 4 -6 0 -14 -8 -17 -9 -3 -14 -10 -11 -14 8 -13 -78 -96 -113 -108
l-32 -11 14 27 c8 15 37 49 66 76 36 33 49 53 45 65 -3 10 1 24 10 31 14 12
21 40 10 40 -10 0 -45 -35 -45 -46 0 -6 -9 -19 -20 -29 -11 -10 -17 -22 -14
-26 3 -5 1 -9 -3 -9 -5 0 -21 -11 -36 -25 -15 -14 -27 -23 -27 -19 0 3 -10 -1
-23 -9 -15 -9 -29 -12 -37 -7 -11 7 -5 19 26 57 46 54 68 92 60 100 -6 6 -45
-37 -46 -50 0 -14 -34 -3 -59 20 -18 16 -22 25 -14 35 16 20 28 82 14 74 -7
-5 -11 8 -11 38 0 40 -3 46 -20 46 -11 0 -23 8 -26 18 -3 9 -10 25 -15 34 -5
10 -9 25 -9 34 0 18 -38 57 -61 62 -8 2 -21 10 -29 17 -15 13 -128 49 -186 59
-29 4 -30 3 -31 -27 0 -18 -8 -61 -18 -97 -9 -36 -27 -125 -40 -199 -14 -73
-34 -152 -45 -176 -33 -69 -100 -88 -100 -28 0 22 -2 25 -10 13 -15 -23 -12
-50 5 -50 8 0 15 -4 15 -9 0 -5 12 -12 28 -15 15 -4 50 -15 77 -26 58 -21 155
-40 208 -40 29 0 43 7 69 36 18 19 45 48 61 64 15 15 27 36 27 47 0 10 5 25
11 33 9 13 10 13 7 0 -1 -8 2 -25 6 -38 18 -55 -80 -137 -193 -163 -25 -6 -90
-10 -143 -10 -54 1 -100 -3 -103 -9 -3 -6 5 -10 18 -10 14 0 67 -11 118 -24
52 -13 132 -27 179 -32 83 -7 84 -7 53 -20 -62 -26 -133 -28 -191 -5 -63 25
-68 26 -52 6 11 -13 7 -15 -23 -15 -52 0 -186 44 -302 100 -56 26 -111 50
-123 54 l-22 7 0 -442 c0 -372 2 -440 13 -425 12 17 18 17 50 7 46 -16 48 -31
3 -31 -54 0 -66 -8 -66 -46 l0 -34 88 -1 c48 0 116 0 152 2 107 3 144 2 170
-5 21 -5 22 -5 5 3 -16 8 -10 10 28 10 l47 1 0 -45 c0 -38 4 -47 23 -54 21 -8
229 -39 427 -62 47 -6 117 -15 155 -21 42 -6 389 -12 883 -15 l812 -4 0 26 0
26 -122 -1 c-137 -2 -559 23 -768 45 -526 55 -628 65 -655 64 -16 -1 -120 7
-230 16 -110 10 -230 19 -266 20 -36 2 -75 6 -86 9 -12 4 -24 2 -28 -4 -3 -5
-13 -10 -21 -10 -8 0 -12 5 -9 10 4 6 -7 10 -27 10 -18 1 -43 9 -55 19 -49 41
-36 43 212 39 l235 -4 0 23 c0 14 6 23 15 23 8 0 15 6 15 14 0 8 3 16 8 18 15
7 62 125 73 186 22 118 -4 218 -86 325 -19 25 -35 50 -35 56 0 5 18 27 40 49
22 21 40 44 40 50 0 7 11 12 24 12 13 0 31 3 40 6 12 5 16 -1 16 -23 0 -17 9
-36 22 -48 19 -16 40 -19 159 -19 l137 -1 6 65 c11 114 7 283 -7 310 -9 17
-11 44 -6 85 l6 60 2 -52 c1 -40 5 -53 16 -53 12 0 13 4 6 18 -9 16 18 250 34
289 7 21 33 15 46 -9 14 -28 98 -106 122 -114 9 -3 17 -14 17 -25 0 -10 7 -19
15 -19 22 0 18 -18 -6 -25 -19 -6 -19 -8 -5 -24 9 -10 16 -22 16 -27 0 -12 52
-115 57 -111 4 5 -22 117 -56 242 -16 55 -36 137 -46 183 l-18 82 -219 0
c-232 0 -235 -1 -202 -48 14 -21 14 -22 -6 -22 -33 0 -57 17 -64 45 -5 21 -12
25 -46 25 -22 0 -40 -3 -40 -6z m261 -74 c-13 -11 -28 -20 -35 -20 -6 0 0 9
14 20 33 26 52 25 21 0z m49 -249 c-1 -9 -7 -2 -15 14 -14 30 -14 30 -11 -22
1 -29 -1 -58 -6 -65 -4 -8 -8 8 -9 37 0 34 -3 44 -8 31 -7 -19 -8 -19 -13 2
-4 15 -2 22 9 22 8 0 12 4 9 9 -4 5 0 11 6 14 15 6 38 -20 38 -42z m17 7 c-3
-8 -6 -5 -6 6 -1 11 2 17 5 13 3 -3 4 -12 1 -19z m-102 -6 c-3 -3 -11 0 -18 7
-9 10 -8 11 6 5 10 -3 15 -9 12 -12z m-68 -227 c1 -25 -3 -45 -8 -45 -6 0 -9
-6 -6 -12 7 -20 -24 -69 -73 -115 -47 -46 -60 -52 -60 -28 0 8 -5 15 -11 15
-5 0 -7 -4 -4 -10 6 -9 -8 -15 -29 -11 -5 1 -6 -5 -3 -14 5 -10 0 -15 -13 -15
-11 0 -20 6 -20 14 0 30 13 46 39 46 18 0 35 11 54 36 16 19 30 41 31 47 2 7
8 25 14 40 7 16 12 33 12 38 0 13 50 59 64 59 7 0 12 -19 13 -45z m-373 0 c23
-17 13 -34 -11 -19 -19 12 -29 34 -16 34 4 0 17 -7 27 -15z m99 -57 c-2 -5
-10 -8 -18 -8 -8 0 -16 3 -18 8 -3 4 5 7 18 7 13 0 21 -3 18 -7z m42 -46 c-3
-3 -11 0 -18 7 -9 10 -8 11 6 5 10 -3 15 -9 12 -12z m-232 -187 c26 -3 47 -10
47 -15 0 -5 6 -7 14 -4 8 3 23 1 33 -5 17 -10 17 -10 -2 -12 -26 -3 -34 -4
-67 -13 -29 -8 -37 -31 -15 -39 6 -3 -3 -6 -20 -6 -35 -1 -47 -26 -18 -37 19
-8 20 -24 1 -24 -8 0 -16 -10 -18 -22 -2 -15 -9 -22 -21 -22 -12 1 -15 -2 -8
-10 15 -18 18 -61 4 -59 -7 2 -10 -4 -7 -12 4 -9 0 -15 -10 -15 -9 0 -16 4
-16 8 0 5 -7 9 -15 9 -11 0 -12 -4 -3 -14 8 -11 7 -12 -6 -7 -18 7 -21 -6 -6
-24 7 -9 7 -9 -2 -2 -17 14 -28 12 -28 -4 0 -8 -5 -18 -12 -22 -7 -4 -8 -3 -4
4 10 17 -10 15 -28 -3 -8 -8 -21 -12 -30 -9 -12 5 -13 10 -4 30 6 13 15 24 20
24 5 0 4 8 -1 19 -6 10 -7 22 -3 26 4 5 1 5 -6 1 -7 -4 -10 -12 -7 -17 3 -5
-1 -6 -9 -3 -9 3 -16 14 -16 24 0 13 7 16 28 14 15 -2 20 -1 12 2 -8 4 -20 13
-27 21 -10 13 -17 11 -55 -14 -23 -16 -44 -38 -46 -48 -3 -20 -3 -20 15 0 10
11 26 26 35 33 15 12 17 11 15 -7 -1 -12 -9 -24 -19 -27 -10 -3 -18 -12 -18
-20 0 -8 -7 -14 -16 -14 -8 0 -12 -4 -9 -10 3 -5 1 -10 -5 -10 -7 0 -10 -6 -7
-14 3 -8 -6 -29 -20 -48 l-25 -33 6 33 c3 18 14 45 24 60 15 20 18 39 15 74
-3 27 -9 45 -14 42 -14 -8 -11 9 10 52 11 22 31 45 45 52 36 16 34 35 -1 20
-16 -7 -34 -17 -42 -22 -12 -9 -12 -8 -1 10 7 12 29 30 49 40 20 10 38 21 41
25 9 9 123 48 155 52 17 2 39 2 50 1 11 -2 41 -6 68 -9z m-268 -295 c3 -6 -1
-7 -9 -4 -18 7 -21 14 -7 14 6 0 13 -4 16 -10z m644 -533 c15 -19 2 -29 -15
-12 -8 7 -14 16 -14 19 0 11 17 6 29 -7z"/>
<path d="M760 940 c0 -5 5 -10 11 -10 5 0 7 5 4 10 -3 6 -8 10 -11 10 -2 0 -4
-4 -4 -10z"/>
<path d="M604 855 c-7 -27 -19 -33 -27 -12 -3 6 -5 3 -5 -8 1 -11 -3 -29 -6
-40 -7 -19 -7 -19 7 -2 8 9 19 17 26 17 6 0 12 3 12 8 9 61 5 85 -7 37z"/>
<path d="M517 833 c-4 -3 -7 -13 -7 -22 1 -13 3 -13 11 2 11 19 8 33 -4 20z"/>
<path d="M662 800 c-17 -28 -15 -32 8 -18 11 7 20 18 20 25 0 19 -14 16 -28
-7z"/>
<path d="M495 780 c-3 -5 -1 -10 4 -10 6 0 11 5 11 10 0 6 -2 10 -4 10 -3 0
-8 -4 -11 -10z"/>
<path d="M1754 1769 c-14 -22 -23 -43 -21 -46 7 -6 77 65 77 77 0 24 -32 6
-56 -31z"/>
<path d="M1926 1788 c-15 -57 8 -169 40 -194 13 -10 13 -14 -2 -28 -9 -9 -15
-19 -13 -21 8 -8 59 8 59 19 0 16 -29 93 -30 79 0 -7 -7 -13 -15 -13 -18 0
-21 60 -5 76 8 8 7 25 -2 57 -13 52 -23 59 -32 25z"/>
<path d="M2094 1793 c35 -125 52 -185 91 -343 26 -102 58 -223 71 -269 13 -46
24 -89 24 -96 0 -14 -35 -30 -87 -40 -40 -8 -44 -26 -5 -23 34 4 41 -16 7 -20
-19 -3 -25 -8 -21 -20 3 -9 8 -33 11 -53 6 -31 10 -36 28 -32 21 4 21 3 5 -10
-10 -8 -18 -19 -18 -25 0 -7 7 -9 18 -5 14 6 15 4 4 -9 -20 -25 2 -103 31
-105 48 -4 116 -26 121 -39 3 -8 0 -14 -6 -14 -6 0 -8 -3 -5 -7 4 -3 2 -12 -4
-20 -9 -9 -8 -13 0 -13 6 0 11 -4 11 -10 0 -5 -7 -10 -15 -10 -8 0 -15 6 -15
13 0 9 -2 9 -9 -1 -6 -10 -10 -8 -15 10 l-6 23 -21 -25 -20 -25 6 25 c5 20 4
22 -5 10 -9 -12 -10 -10 -6 13 4 17 2 27 -5 27 -6 0 -9 7 -5 15 3 8 1 15 -4
15 -13 0 -13 -18 4 -76 8 -27 24 -92 36 -144 13 -55 29 -99 37 -104 10 -5 12
-11 5 -15 -7 -4 -5 -29 5 -76 25 -115 24 -113 90 -118 39 -2 25 -4 -41 -5 -55
-1 -97 -4 -95 -6 2 -2 60 -7 127 -10 88 -5 122 -4 117 4 -3 5 -11 7 -17 4 -7
-5 -8 -2 -4 5 5 7 10 10 13 7 3 -3 21 1 40 9 44 18 44 18 37 0 -4 -10 0 -15
11 -15 14 0 15 -3 5 -15 -11 -13 -6 -15 32 -15 25 0 65 3 90 6 42 6 44 8 46
40 2 24 -2 34 -12 34 -8 0 -13 8 -11 18 1 9 8 16 14 15 7 -2 11 24 11 81 l0
83 -102 6 c-57 3 -105 3 -107 1 -10 -10 20 -21 62 -23 23 -1 22 -21 -2 -21
-11 0 -22 -6 -24 -12 -3 -7 -6 -8 -6 -2 -1 7 -18 8 -53 3 -87 -12 -88 -12 -88
21 0 16 7 33 15 37 13 7 13 15 0 63 -8 30 -15 58 -15 61 0 4 41 21 92 39 l92
33 62 -16 c34 -10 65 -17 68 -17 3 0 6 41 6 90 0 72 -3 92 -15 96 -20 8 -225
11 -225 3 0 -3 -26 -5 -57 -4 -32 1 -61 -3 -65 -9 -4 -6 -12 -5 -23 4 -12 10
-18 11 -24 2 -9 -14 -133 -13 -143 2 -14 20 -8 55 13 74 17 17 18 20 5 25 -24
10 -19 29 5 22 13 -4 27 0 40 11 15 13 19 14 20 3 2 -42 19 -81 19 -43 0 21
-24 120 -34 146 -5 10 -1 23 11 35 19 19 18 23 -28 197 -43 163 -47 189 -49
305 -2 154 6 217 26 200 11 -9 14 -6 14 15 l0 26 -96 0 c-86 0 -95 -2 -90 -17z
m199 -763 c3 -11 0 -20 -6 -20 -9 0 -9 -2 -1 -8 6 -4 14 -18 18 -32 3 -14 3
-19 0 -13 -4 9 -11 10 -23 4 -25 -14 -37 -1 -37 41 0 35 5 41 37 47 4 0 9 -8
12 -19z m-59 -103 c-11 -6 -19 -5 -25 4 -15 24 -10 29 16 17 23 -10 24 -13 9
-21z m153 -289 c-3 -8 -6 -5 -6 6 -1 11 2 17 5 13 3 -3 4 -12 1 -19z m-47 -66
c-8 -3 -18 -10 -22 -16 -5 -7 -8 -5 -8 6 0 18 19 29 35 20 5 -3 2 -8 -5 -10z
m20 -36 c0 -2 -9 -6 -20 -9 -11 -3 -20 -1 -20 4 0 5 9 9 20 9 11 0 20 -2 20
-4z m45 -107 c11 -17 0 -20 -21 -4 -17 13 -17 14 -2 15 9 0 20 -5 23 -11z m-5
-29 c0 -5 -4 -10 -10 -10 -5 0 -10 5 -10 10 0 6 5 10 10 10 6 0 10 -4 10 -10z
m50 -22 c0 -19 -2 -20 -10 -8 -13 19 -13 30 0 30 6 0 10 -10 10 -22z m263 15
c-7 -2 -19 -2 -25 0 -7 3 -2 5 12 5 14 0 19 -2 13 -5z m-158 -38 c-35 -16 -75
-19 -75 -6 0 5 8 8 18 7 9 -2 28 1 42 5 40 12 48 9 15 -6z m218 -12 c-7 -2
-19 -2 -25 0 -7 3 -2 5 12 5 14 0 19 -2 13 -5z m-186 -9 c-3 -3 -12 -4 -19 -1
-8 3 -5 6 6 6 11 1 17 -2 13 -5z m-14 -69 c7 -18 -6 -27 -27 -19 -12 5 -13 9
-3 20 16 17 24 17 30 -1z m167 -16 c0 -6 -4 -7 -10 -4 -5 3 -10 11 -10 16 0 6
5 7 10 4 6 -3 10 -11 10 -16z"/>
<path d="M2265 980 c3 -5 8 -10 11 -10 2 0 4 5 4 10 0 6 -5 10 -11 10 -5 0 -7
-4 -4 -10z"/>
<path d="M2295 1680 c-4 -17 -5 -34 -2 -36 3 -3 8 9 12 26 4 17 5 34 2 36 -3
3 -8 -9 -12 -26z"/>
<path d="M832 1678 c-10 -21 -11 -21 -11 -3 -1 13 -4 16 -11 9 -12 -12 -3 -44
11 -44 10 0 32 50 26 56 -2 3 -9 -6 -15 -18z"/>
<path d="M2255 1645 c-5 -11 -10 -24 -13 -30 -3 -5 3 -3 13 7 9 9 15 22 12 30
-3 9 -7 7 -12 -7z"/>
<path d="M322 1590 c0 -14 2 -19 5 -12 2 6 2 18 0 25 -3 6 -5 1 -5 -13z"/>
<path d="M311 1534 c0 -11 3 -14 6 -6 3 7 2 16 -1 19 -3 4 -6 -2 -5 -13z"/>
<path d="M80 1363 c-57 -6 -80 -13 -80 -24 0 -8 24 -10 78 -6 42 3 78 6 80 7
1 0 2 7 2 15 0 15 -7 16 -80 8z"/>
<path d="M2151 1194 c0 -11 3 -14 6 -6 3 7 2 16 -1 19 -3 4 -6 -2 -5 -13z"/>
<path d="M2121 1184 c0 -11 3 -14 6 -6 3 7 2 16 -1 19 -3 4 -6 -2 -5 -13z"/>
<path d="M2330 996 c0 -2 8 -10 18 -17 15 -13 16 -12 3 4 -13 16 -21 21 -21
13z"/>
<path d="M1165 848 c4 -29 11 -58 16 -64 5 -6 6 -32 3 -58 l-7 -46 35 0 c19 0
69 -3 111 -6 l77 -7 0 56 c0 30 4 57 9 59 6 2 13 26 16 54 7 48 6 51 -16 57
-13 4 -75 7 -137 7 l-114 0 7 -52z"/>
<path d="M2590 874 c58 -7 200 -8 200 -1 0 4 -51 6 -112 6 -62 -1 -102 -3 -88
-5z"/>
<path d="M1911 865 c1 -19 18 -51 18 -35 0 8 -4 22 -9 30 -5 8 -9 11 -9 5z"/>
<path d="M1936 775 c6 -45 24 -108 29 -103 2 2 -5 35 -15 73 -12 42 -18 54
-14 30z"/>
<path d="M2296 694 c-11 -8 -15 -14 -10 -14 6 0 15 5 22 12 9 9 14 6 21 -13 6
-15 10 -18 10 -8 1 27 -21 39 -43 23z"/>
<path d="M1366 637 c-3 -15 -8 -38 -11 -52 -3 -14 -10 -25 -15 -25 -5 0 -7 7
-4 15 8 20 -1 19 -22 -2 -15 -16 -15 -17 2 -24 14 -6 11 -8 -14 -8 -22 -1 -31
-5 -26 -13 5 -8 0 -9 -17 -5 -22 6 -22 5 5 -17 28 -21 29 -26 23 -79 -3 -34
-2 -55 4 -52 5 4 9 34 9 68 0 59 1 63 30 75 32 15 44 40 42 92 l-1 35 9 -30
c7 -28 8 -28 9 -5 0 14 -3 32 -8 39 -8 12 -11 9 -15 -12z"/>
<path d="M1968 637 c-3 -14 0 -24 7 -24 7 0 10 10 7 24 -2 13 -6 23 -7 23 -1
0 -5 -10 -7 -23z"/>
<path d="M1200 572 c0 -15 27 -45 32 -36 3 5 -3 17 -14 27 -10 9 -18 13 -18 9z"/>
<path d="M1988 574 c-3 -3 -1 -21 5 -40 9 -31 8 -36 -11 -50 -26 -18 -28 -30
-5 -38 10 -4 23 1 35 14 19 20 19 23 3 70 -17 52 -18 54 -27 44z"/>
<path d="M2050 418 c0 -9 5 -20 10 -23 13 -8 13 5 0 25 -8 13 -10 13 -10 -2z"/>
<path d="M1276 322 c-4 -18 -5 -36 -2 -39 11 -12 17 5 14 39 l-3 33 -9 -33z"/>
<path d="M2097 343 c-4 -3 -7 -11 -7 -17 0 -6 5 -5 12 2 6 6 9 14 7 17 -3 3
-9 2 -12 -2z"/>
<path d="M2003 287 c2 -35 -1 -61 -8 -67 -10 -9 -175 -3 -431 16 -55 4 -94 3
-97 -3 -4 -6 15 -8 48 -5 35 3 55 1 55 -6 0 -7 30 -10 83 -10 45 1 149 -2 231
-6 116 -6 147 -6 141 4 -5 9 -1 10 15 5 l23 -7 -21 27 c-12 15 -22 37 -23 49
0 11 -5 30 -10 41 -6 14 -8 4 -6 -38z"/>
<path d="M1810 318 c0 -21 -51 -67 -68 -61 -10 4 -13 1 -10 -8 6 -18 58 -24
68 -8 5 7 15 9 26 4 11 -4 30 -8 44 -9 14 -1 34 -5 46 -9 20 -7 20 -7 5 42 -9
27 -17 43 -19 35 -5 -20 -20 -17 -34 6 -14 22 -58 28 -58 8z"/>
<path d="M2110 271 c0 -5 5 -13 10 -16 17 -10 11 -23 -12 -32 -18 -6 -12 -9
32 -14 93 -12 150 -10 150 4 0 14 -77 17 -98 3 -9 -5 -25 5 -47 29 -19 20 -35
32 -35 26z"/>
<path d="M1163 263 c9 -2 23 -2 30 0 6 3 -1 5 -18 5 -16 0 -22 -2 -12 -5z"/>
<path d="M1258 253 c12 -2 32 -2 45 0 12 2 2 4 -23 4 -25 0 -35 -2 -22 -4z"/>
<path d="M1373 243 c15 -2 39 -2 55 0 15 2 2 4 -28 4 -30 0 -43 -2 -27 -4z"/>
<path d="M2088 193 c7 -3 16 -2 19 1 4 3 -2 6 -13 5 -11 0 -14 -3 -6 -6z"/>
<path d="M2648 123 c29 -2 74 -2 100 0 26 2 2 3 -53 3 -55 0 -76 -1 -47 -3z"/>
</g>
</svg>
