<?xml version="1.0" standalone="no"?>
<!DOCTYPE svg PUBLIC "-//W3C//DTD SVG 20010904//EN"
 "http://www.w3.org/TR/2001/REC-SVG-20010904/DTD/svg10.dtd">
<svg version="1.0" xmlns="http://www.w3.org/2000/svg"
 width="128.000000pt" height="128.000000pt" viewBox="0 0 128.000000 128.000000"
 preserveAspectRatio="xMidYMid meet">

<g transform="translate(0.000000,128.000000) scale(0.100000,-0.100000)"
fill="#000000" stroke="none">
<path d="M1144 1147 c-2 -7 -3 -85 -2 -172 3 -159 3 -160 26 -163 36 -5 81 18
97 49 10 19 15 60 15 124 0 102 -13 145 -49 165 -27 14 -81 13 -87 -3z"/>
<path d="M392 1108 c-7 -7 -12 -18 -12 -25 0 -10 -25 -13 -100 -13 l-100 0 0
-85 0 -85 99 0 c97 0 99 0 105 -25 6 -24 9 -25 91 -25 l85 0 0 135 0 135 -78
0 c-47 0 -83 -5 -90 -12z"/>
<path d="M795 783 c13 -56 43 -99 89 -130 27 -18 59 -33 71 -33 23 0 24 3 27
91 2 50 1 93 -1 95 -2 2 -47 4 -99 4 l-94 0 7 -27z"/>
<path d="M907 303 c-4 -3 -7 -28 -7 -55 l0 -48 173 2 172 3 3 29 c2 15 1 39
-2 52 l-6 24 -164 0 c-89 0 -166 -3 -169 -7z"/>
</g>
</svg>
